# xmcd
#
# Track frame offsets:
#	150
#	11091
#	22900
#	37465
#	50360
#	61829
#	70777
#	80701
#	94148
#	108383
#	120893
#	131763
#
# Disc length: 1991 seconds
#
# Revision: 1
# Processed by: cddbd v1.5.2PL0 Copyright (c) Steve Scherf et al.
# Submitted via: audiograbber 1.83.01
#
DISCID=9d07c50c
DTITLE=Cracker Barrel - Bluegrass Gems
DYEAR=2015
DGENRE=Bluegrass
TTITLE0=Lester Flatt and Earl Scruggs Feat. Mother maybelle Carter - Foggy mounta
TTITLE0=in top
TTITLE1=Roy Acuff - Wabash Connonball
TTITLE2=The Stanley Brothers and Clinch Mountain Boys - The White Dove
TTITLE3=The Carter Family - Keep On The Sunney Side
TTITLE4=Bill Monroe and His blue Grass Boys - Orange Blossom Special
TTITLE5=Grandpa Jones - Mountain Dew
TTITLE6=Joe Maphis - Twin Banjo Special
TTITLE7=Earl Scruggs - Till The End Of the World Rolls 'Round
TTITLE8=Dolly Parton - Mule Skinner Blues (Blue Yodel No. 8)
TTITLE9=Lester Flatt and Mac Wiseman - Your love Is Like A Flower
TTITLE10=Ricky Skaggs - Uncle pen
TTITLE11=Ralph Stanley - I'm Thinking Tonight Of My Blue eyes
EXTD=
EXTT0=
EXTT1=
EXTT2=
EXTT3=
EXTT4=
EXTT5=
EXTT6=
EXTT7=
EXTT8=
EXTT9=
EXTT10=
EXTT11=
PLAYORDER=
